PathFileType	4	(X/Y/Z)	C:/Users/opensim2020/Desktop/walking_exp_matlab/subject06_walking23_straight_03.trc	
DataRate	CameraRate	NumFrames	NumMarkers	Units	OrigDataRate	OrigDataStartFrame	OrigNumFrames	
100.00	100.00	4	45	mm	100.00	1751	94	
Frame#	Time	LFHD			RFHD			LBHD			RBHD			C7			T10			CLAV			STRN			RBAK			LSHO			LUPA			LELB			LFRM			LWRA			LWRB			LFIN			RSHO			RUPA			RELB			RFRM			RWRA			RWRB			RFIN			LASI			RASI			LPSI			RPSI			LTHI			LKNE			LTIB			LANK			LHEE			LTOE			RTHI			RKNE			RTIB			RANK			RHEE			RTOE			*39			*40			*41			*42			*43			*44			
		X1	Y1	Z1	X2	Y2	Z2	X3	Y3	Z3	X4	Y4	Z4	X5	Y5	Z5	X6	Y6	Z6	X7	Y7	Z7	X8	Y8	Z8	X9	Y9	Z9	X10	Y10	Z10	X11	Y11	Z11	X12	Y12	Z12	X13	Y13	Z13	X14	Y14	Z14	X15	Y15	Z15	X16	Y16	Z16	X17	Y17	Z17	X18	Y18	Z18	X19	Y19	Z19	X20	Y20	Z20	X21	Y21	Z21	X22	Y22	Z22	X23	Y23	Z23	X24	Y24	Z24	X25	Y25	Z25	X26	Y26	Z26	X27	Y27	Z27	X28	Y28	Z28	X29	Y29	Z29	X30	Y30	Z30	X31	Y31	Z31	X32	Y32	Z32	X33	Y33	Z33	X34	Y34	Z34	X35	Y35	Z35	X36	Y36	Z36	X37	Y37	Z37	X38	Y38	Z38	X39	Y39	Z39	X40	Y40	Z40	X41	Y41	Z41	X42	Y42	Z42	X43	Y43	Z43	X44	Y44	Z44	X45	Y45	Z45	

12	0.110	1337.73340	-495.67389	1622.54846	1469.56580	-498.07092	1615.30237	1336.69678	-629.20831	1568.94128	1466.27100	-630.17609	1566.69006	1390.55713	-633.93335	1418.97668	1411.48474	-706.70056	1098.06555	1402.59399	-531.46497	1331.67371	1396.70203	-511.71924	1153.25208	1462.35205	-729.58014	1259.80505	1236.70605	-568.02576	1367.89392	1159.85535	-538.21881	1171.55652	1142.97437	-512.41937	1062.74573	1143.59302	-402.90958	960.99713	1213.22083	-295.16617	921.41943	1169.54468	-325.07251	874.70496	1185.44165	-240.09508	850.47894	1558.67456	-588.85730	1369.67932	1640.67981	-703.57532	1208.07922	1658.33337	-741.31165	1090.85181	1676.17151	-760.48468	972.01721	1646.47693	-734.70300	822.29120	1683.38818	-789.41101	837.59235	1681.97986	-777.10211	753.37866	1296.35669	-555.81146	922.75024	1515.11816	-536.21796	929.40137	1343.12964	-708.81677	962.06866	1509.78137	-685.72137	958.84430	1254.69360	-685.91962	623.36444	1284.63391	-728.55176	463.44174	1302.54419	-871.54657	245.49973	1356.62085	-949.04791	93.54517	1400.90076	-993.69226	94.54678	1360.29053	-818.71289	38.07603	1593.56885	-518.09576	607.24524	1563.77136	-456.59930	497.85666	1553.09326	-386.86877	251.42744	1510.71558	-303.33493	84.00864	1458.39172	-320.85162	51.73272	1531.24438	-149.26517	103.62943	1393.92871	-596.92126	1662.91882															 
13	0.120	1338.91516	-482.71185	1621.30200	1470.70483	-484.92334	1613.94263	1337.94360	-616.11414	1567.38831	1467.50281	-616.93036	1565.02869	1391.82568	-620.43854	1417.24683	1412.13623	-692.26508	1096.12109	1403.45911	-517.50635	1330.20605	1397.62952	-497.35797	1151.74353	1463.31323	-715.39545	1257.58313	1237.86707	-554.61310	1366.35852	1160.86133	-524.72046	1170.22766	1144.07886	-498.72977	1061.53699	1145.37573	-387.49243	962.30768	1215.64282	-279.06287	926.21161	1172.30151	-307.66919	878.27423	1188.25415	-221.98680	856.88745	1559.70105	-574.96185	1367.94287	1641.75732	-689.43549	1206.20544	1659.66211	-727.15161	1089.01050	1677.68396	-746.67395	970.25446	1648.37366	-721.40472	820.23090	1685.22241	-776.11536	835.97058	1684.04004	-764.17761	751.61871	1296.93750	-541.36237	920.94006	1516.11182	-521.13666	927.80475	1344.56726	-694.24878	959.89380	1511.16577	-670.77911	957.23718	1255.17664	-672.48248	622.09979	1284.51123	-716.61707	462.38199	1301.85840	-864.98914	247.99770	1355.13086	-946.56958	97.87718	1399.13391	-991.32660	100.45480	1360.32446	-818.28546	38.01577	1593.83582	-501.33350	606.71417	1563.23535	-440.53006	497.80157	1551.44153	-372.07352	250.26544	1508.11914	-289.57797	82.33569	1455.89172	-307.40277	49.72952	1527.50513	-135.44952	101.97794	1395.24146	-583.99011	1661.35999															 
14	0.130	1340.14673	-469.59506	1620.34900	1471.99207	-471.66898	1612.86047	1339.29883	-602.86847	1566.11414	1468.83289	-603.52020	1563.60608	1392.94080	-606.82001	1415.82251	1412.78137	-677.55713	1094.44617	1404.63867	-503.17151	1329.06091	1398.64673	-482.76566	1150.49292	1464.33337	-701.00940	1255.77356	1238.97827	-540.78815	1365.18201	1161.87354	-511.35519	1169.06995	1145.22546	-485.25665	1060.51904	1147.20667	-372.50320	963.67706	1218.06494	-263.51544	930.90009	1175.02380	-291.08597	881.41370	1191.10620	-204.91591	862.77759	1560.82861	-560.80664	1366.44055	1642.98608	-674.85010	1204.40674	1661.16150	-712.38885	1087.13257	1679.35754	-732.17108	968.43781	1650.66028	-707.32635	818.52313	1687.14478	-762.08514	834.26459	1686.35278	-750.56879	749.77521	1297.84131	-526.36719	919.36359	1517.32068	-506.09677	926.83502	1345.75366	-679.28882	957.86072	1512.22681	-655.78839	956.07813	1255.71484	-658.46863	620.96649	1284.46948	-703.82440	461.47330	1301.06201	-857.59521	250.74648	1353.42627	-943.72870	102.97702	1397.11975	-988.37079	107.09025	1360.41919	-817.79852	37.95369	1594.13818	-483.76932	607.01654	1562.66663	-422.92181	498.73557	1550.03955	-357.88998	249.10434	1505.11804	-279.43979	79.49091	1453.24500	-298.75595	47.28511	1522.20361	-125.05669	96.85928	1396.65784	-570.91284	1660.12939															 
15	0.140	1341.48792	-456.28931	1619.70300	1473.29980	-458.25940	1612.06311	1340.73853	-589.46680	1565.16370	1470.22791	-590.01727	1562.51465	1394.36133	-592.59015	1414.66235	1413.39746	-662.43359	1093.05701	1405.79919	-488.86295	1328.16943	1399.81409	-467.86313	1149.56885	1465.43616	-686.44440	1254.23132	1240.25305	-526.77209	1364.27344	1163.06677	-497.96594	1168.09656	1146.45227	-472.26749	1059.59070	1149.03833	-358.19266	964.98834	1220.27991	-248.86545	934.99725	1177.60938	-275.47928	884.38934	1193.85779	-188.70590	868.19196	1562.08899	-546.56122	1365.32056	1644.39136	-659.83307	1202.66907	1662.74121	-697.04822	1085.35547	1681.14490	-716.98615	966.63202	1652.61121	-692.63184	816.33533	1689.23804	-747.34143	832.55566	1688.52527	-736.23077	747.96606	1298.88232	-510.82745	918.07251	1518.77332	-490.55032	926.46960	1346.82874	-664.14862	956.43115	1512.92505	-640.99542	955.29736	1256.32788	-643.79346	619.89893	1284.30994	-690.17078	460.63068	1300.21729	-849.35596	253.84276	1351.58130	-940.07593	108.55226	1394.91333	-984.62170	114.42194	1360.48865	-817.24866	37.85444	1594.90234	-465.38815	608.37299	1562.38159	-404.09265	500.70511	1548.81482	-344.40210	247.83159	1501.91089	-272.82236	75.78070	1450.23767	-293.64621	43.51501	1516.37805	-118.44269	89.48739	1398.17688	-557.71893	1659.18835															 
